<svg width="640" height="480" viewBox="0 0 640 480" fill="none" xmlns="http://www.w3.org/2000/svg">
  <rect width="640" height="480" rx="36" fill="#182019"/>
  <rect x="34" y="34" width="572" height="412" rx="28" fill="#223026"/>
  <circle cx="174" cy="164" r="88" fill="#C79243"/>
  <path d="M162 120C185.196 149.564 193.622 182.763 187.278 219.598C153.528 205.419 129.124 176.482 126 138.75C131.691 128.101 143.691 121.851 162 120Z" fill="#101412"/>
  <rect x="302" y="108" width="236" height="42" rx="21" fill="#EFE4D1" fill-opacity="0.1"/>
  <rect x="302" y="176" width="270" height="24" rx="12" fill="#EFE4D1" fill-opacity="0.12"/>
  <rect x="302" y="214" width="238" height="24" rx="12" fill="#EFE4D1" fill-opacity="0.12"/>
  <rect x="302" y="252" width="194" height="24" rx="12" fill="#EFE4D1" fill-opacity="0.12"/>
  <rect x="98" y="308" width="444" height="90" rx="26" fill="#101412" fill-opacity="0.52"/>
  <path d="M154 354H276" stroke="#C79243" stroke-width="12" stroke-linecap="round"/>
  <path d="M320 354H486" stroke="#7F8F71" stroke-width="12" stroke-linecap="round"/>
</svg>
