<svg width="120" height="120" viewBox="0 0 120 120" fill="none" xmlns="http://www.w3.org/2000/svg">
  <rect width="120" height="120" rx="28" fill="#EFE4D1"/>
  <path d="M33 77C33 58.2223 48.2223 43 67 43H88V56H67C55.402 56 46 65.402 46 77V87H33V77Z" fill="#405338"/>
  <path d="M65 26C78.8071 26 90 37.1929 90 51C90 64.8071 78.8071 76 65 76C51.1929 76 40 64.8071 40 51C40 37.1929 51.1929 26 65 26Z" fill="#C79243"/>
  <path d="M64.5 33C70.5 39.5 73.5 47 73.5 55.5C73.5 67.5 66 78 56 84C61 70 51 61.5 51 51.5C51 43 56 36.5 64.5 33Z" fill="#101412"/>
  <circle cx="92" cy="90" r="8" fill="#101412"/>
</svg>
