<svg xmlns="http://www.w3.org/2000/svg" viewBox="0 0 1200 900" role="img" aria-labelledby="title desc"><title id="title">TrapCotton Chicago Dream hoodie preview</title><desc id="desc">Stylized preview graphic of TrapCotton Chicago hoodie front and back with 312 area code.</desc><defs><linearGradient id="bg" x1="0" x2="1"><stop offset="0" stop-color="#74b7dd"/><stop offset="1" stop-color="#63a8d3"/></linearGradient><filter id="shadow" x="-20%" y="-20%" width="140%" height="160%"><feDropShadow dx="0" dy="20" stdDeviation="18" flood-color="#000" flood-opacity="0.25"/></filter></defs><rect width="1200" height="900" fill="#c8c2bb"/><g opacity="0.18" fill="#ef5544"><circle cx="120" cy="95" r="4"/><circle cx="230" cy="150" r="3"/><circle cx="345" cy="115" r="4"/><circle cx="460" cy="245" r="4"/><circle cx="540" cy="165" r="3"/><circle cx="690" cy="110" r="4"/><circle cx="775" cy="208" r="3"/><circle cx="890" cy="155" r="4"/><circle cx="1005" cy="120" r="4"/><circle cx="1090" cy="210" r="3"/></g><g filter="url(#shadow)"><g transform="translate(70 70)"><path d="M170 130c20-75 72-120 145-120s125 45 145 120l35 24c38 27 55 63 55 116v425H80V270c0-53 17-89 55-116l35-24z" fill="url(#bg)" stroke="#5596bf" stroke-width="4"/><path d="M215 130c18-48 53-76 100-76s82 28 100 76v34H215z" fill="#84c0e2"/><path d="M408 166c0-23 17-39 40-39 21 0 39 16 39 39" fill="none" stroke="#ef5544" stroke-width="10" stroke-linecap="round"/><path d="M448 200v-46" stroke="#ef5544" stroke-width="10" stroke-linecap="round"/><text x="315" y="282" text-anchor="middle" font-family="Arial, Helvetica, sans-serif" font-size="46" font-weight="800" fill="#ef5544">TRAPCOTTON</text><text x="315" y="340" text-anchor="middle" font-family="Arial, Helvetica, sans-serif" font-size="74" font-weight="800" fill="#ef5544">CHICAGO</text><text x="315" y="394" text-anchor="middle" font-family="Arial, Helvetica, sans-serif" font-size="28" font-weight="500" fill="#f8f4ef">In a Dream, I Saw a City Invincible</text><text x="120" y="642" font-family="Arial, Helvetica, sans-serif" font-size="24" font-weight="700" fill="#ef5544">TRAPCOTTON</text></g><g transform="translate(630 70)"><path d="M170 130c20-75 72-120 145-120s125 45 145 120l35 24c38 27 55 63 55 116v425H80V270c0-53 17-89 55-116l35-24z" fill="url(#bg)" stroke="#5596bf" stroke-width="4"/><path d="M215 130c18-48 53-76 100-76s82 28 100 76v34H215z" fill="#84c0e2"/><text x="315" y="332" text-anchor="middle" font-family="Arial, Helvetica, sans-serif" font-size="170" font-weight="800" fill="#ef5544">312</text><text x="315" y="397" text-anchor="middle" font-family="Arial, Helvetica, sans-serif" font-size="28" font-weight="700" fill="#f8f4ef">41.8781° N, 87.6298° W</text></g></g></svg>