<svg width="540" height="360" viewBox="0 0 540 360" fill="none" xmlns="http://www.w3.org/2000/svg">
  <rect width="540" height="360" rx="28" fill="#201812"/>
  <rect x="34" y="32" width="472" height="296" rx="24" fill="#312218"/>
  <path d="M181 108L140 134L164 186L210 172L233 186L258 172L281 186L327 172L350 186L374 134L333 108L301 128L270 114L239 128L181 108Z" fill="#EFE4D1"/>
  <path d="M211 182C214.333 198 223.6 228 245 240" stroke="#C79243" stroke-width="10" stroke-linecap="round"/>
  <path d="M333 182C329.667 198 320.4 228 299 240" stroke="#C79243" stroke-width="10" stroke-linecap="round"/>
  <rect x="76" y="270" width="388" height="26" rx="13" fill="#C79243" fill-opacity="0.32"/>
  <rect x="96" y="70" width="112" height="18" rx="9" fill="#7F8F71"/>
</svg>
