<svg xmlns="http://www.w3.org/2000/svg" viewBox="0 0 1200 900" role="img" aria-labelledby="title desc"><title id="title">TrapCotton Atlanta Pride hoodie preview</title><desc id="desc">Stylized preview graphic of TrapCotton Atlanta hoodie front and back with 404 area code.</desc><defs><linearGradient id="bg" x1="0" x2="1"><stop offset="0" stop-color="#b6855a"/><stop offset="1" stop-color="#d39c6b"/></linearGradient><filter id="shadow" x="-20%" y="-20%" width="140%" height="160%"><feDropShadow dx="0" dy="20" stdDeviation="18" flood-color="#000" flood-opacity="0.25"/></filter></defs><rect width="1200" height="900" fill="#9b8b7f"/><g opacity="0.2" fill="#fff4e8"><circle cx="105" cy="102" r="4"/><circle cx="210" cy="170" r="3"/><circle cx="330" cy="110" r="5"/><circle cx="430" cy="250" r="4"/><circle cx="560" cy="180" r="3"/><circle cx="670" cy="110" r="4"/><circle cx="760" cy="220" r="5"/><circle cx="880" cy="160" r="4"/><circle cx="980" cy="120" r="5"/><circle cx="1080" cy="210" r="3"/></g><g filter="url(#shadow)"><g transform="translate(70 70)"><path d="M170 130c20-75 72-120 145-120s125 45 145 120l35 24c38 27 55 63 55 116v425H80V270c0-53 17-89 55-116l35-24z" fill="url(#bg)" stroke="#9a6a43" stroke-width="4"/><path d="M215 130c18-48 53-76 100-76s82 28 100 76v34H215z" fill="#c99363"/><path d="M205 120h220" stroke="#9a6a43" stroke-width="3" opacity="0.5"/><path d="M238 452h164l24 102H214z" fill="none" stroke="#9a6a43" stroke-width="4" opacity="0.8"/><text x="315" y="280" text-anchor="middle" font-family="Arial, Helvetica, sans-serif" font-size="46" font-weight="800" fill="#f8ebdc">TRAPCOTTON</text><text x="315" y="338" text-anchor="middle" font-family="Arial, Helvetica, sans-serif" font-size="74" font-weight="800" fill="#f8ebdc">ATLANTA</text><text x="315" y="390" text-anchor="middle" font-family="Arial, Helvetica, sans-serif" font-size="28" font-weight="700" fill="#f8ebdc">FOREVER UP, FOREVER ATL</text><path d="M425 188l18 26 27 9-18 16 2 32-29-18-28 18 1-32-18-16 27-9z" fill="#f8ebdc" opacity="0.95"/></g><g transform="translate(630 70)"><path d="M170 130c20-75 72-120 145-120s125 45 145 120l35 24c38 27 55 63 55 116v425H80V270c0-53 17-89 55-116l35-24z" fill="url(#bg)" stroke="#9a6a43" stroke-width="4"/><path d="M215 130c18-48 53-76 100-76s82 28 100 76v34H215z" fill="#c99363"/><text x="315" y="330" text-anchor="middle" font-family="Arial, Helvetica, sans-serif" font-size="170" font-weight="800" fill="#f8ebdc">404</text><text x="315" y="396" text-anchor="middle" font-family="Arial, Helvetica, sans-serif" font-size="28" font-weight="700" fill="#f8ebdc">33.7490° N, 84.3880° W</text></g></g></svg>